<svg xmlns="http://www.w3.org/2000/svg" width="166.644" height="42.235" viewBox="0 0 166.644 42.235">
  <g id="logo" transform="translate(-154.543 -324.358)">
    <g id="Group_1" data-name="Group 1" transform="translate(154.543 324.358)">
      <path id="Path_1" data-name="Path 1" d="M189.76,354.96c-6.185,8.174-11.867,10.728-11.867,10.728a19.125,19.125,0,0,0,18.6-19.166,21.7,21.7,0,0,0-.263-3.515S195.779,346.981,189.76,354.96Z" transform="translate(-158.361 -326.255)" fill="#fff"/>
      <path id="Path_2" data-name="Path 2" d="M190.748,322.052c-1.194-.962-3.158-.589-5.017.153a25.911,25.911,0,0,0-4.813,2.671,18.91,18.91,0,0,0-9.065-2.305,19.212,19.212,0,0,0-17.177,27.516s-2.953-7.263.317-13.941,7.27-5.439,8.093-5.007c1.345.7,2.971,1.961,2.28,6.967-.654,4.609-5.326,11.462-7.083,16.758-.207.618-2.469,6.461.728,8.41,3.477,2.108,11.906-3.871,16.261-8.349A90.388,90.388,0,0,0,185.731,342.2a43.33,43.33,0,0,0,4.4-8.367,26.427,26.427,0,0,0,2.015-8.013v-.442A4.121,4.121,0,0,0,190.748,322.052Zm-2.989,9.136a19.475,19.475,0,0,0-2.028-2.583,18.918,18.918,0,0,0-3.635-3.036,15.5,15.5,0,0,1,3.635-1.866c1.189-.377,2.385-.457,3.093.314C190.5,325.865,187.758,331.189,187.758,331.189Z" transform="translate(-152.789 -321.475)" fill="#fff"/>
    </g>
    <g id="Group_2" data-name="Group 2" transform="translate(227.17 329.621)">
      <path id="Path_3" data-name="Path 3" d="M248.421,340.062h-.044l-4.525-8.974h-3.286l6.32,12.764h2.962l6.118-12.764h-3.3Z" transform="translate(-240.566 -331.088)" fill="#fff" stroke="#006cbb" stroke-miterlimit="22.926" stroke-width="0.216"/>
      <path id="Path_4" data-name="Path 4" d="M275.645,339.651H275.6l-7.732-8.563H264.36v12.764h3.012v-8.726h.036l8,8.726h3.207V331.088H275.6Z" transform="translate(-244.197 -331.088)" fill="#fff" stroke="#006cbb" stroke-miterlimit="22.926" stroke-width="0.216"/>
      <path id="Path_5" data-name="Path 5" d="M302.375,332.357a4.388,4.388,0,0,0-1.556-.921,6.781,6.781,0,0,0-2.242-.347h-8.416v12.764h3.214v-4.568H298.5a6.758,6.758,0,0,0,2.321-.349,4.431,4.431,0,0,0,1.563-.921,3.479,3.479,0,0,0,.872-1.315,4.344,4.344,0,0,0,0-3.035A3.44,3.44,0,0,0,302.375,332.357Zm-2.168,3.817a1.667,1.667,0,0,1-.62.585,2.773,2.773,0,0,1-.9.278,7.619,7.619,0,0,1-1.059.072h-4.251v-3.843h4.251a7.365,7.365,0,0,1,1.059.072,2.713,2.713,0,0,1,.9.279,1.642,1.642,0,0,1,.62.583,2.237,2.237,0,0,1,0,1.974Z" transform="translate(-248.135 -331.088)" fill="#fff" stroke="#006cbb" stroke-miterlimit="22.926" stroke-width="0.216"/>
      <path id="Path_6" data-name="Path 6" d="M309.78,331.088v2.689h5.008v10.075h3.207V333.777h5.2v-2.689Z" transform="translate(-251.129 -331.088)" fill="#fff" stroke="#006cbb" stroke-miterlimit="22.926" stroke-width="0.216"/>
    </g>
    <g id="Group_3" data-name="Group 3" transform="translate(205.651 348.519)">
      <path id="Path_7" data-name="Path 7" d="M222.253,362.9a3.493,3.493,0,0,1-3.106,3.189H219.1a4.182,4.182,0,0,1-3.928-4.31c0-.166.012-.334.024-.511a4.391,4.391,0,0,1,3.494-4.156,3.1,3.1,0,0,1,2.9.881.832.832,0,0,1,.267.572c0,.283-.229.475-.568.475a1.142,1.142,0,0,1-.494-.119,1.968,1.968,0,0,0-.9-.237,1.267,1.267,0,0,0-1.124.69,3.911,3.911,0,0,0-.409,1.846,2.448,2.448,0,0,0,1.111,2.369.757.757,0,0,0,.3.071c.41,0,.771-.406,1.438-1.214a.64.64,0,0,1,.507-.239c.278,0,.532.179.532.608Z" transform="translate(-215.171 -353.948)" fill="#fff" fill-rule="evenodd"/>
      <path id="Path_8" data-name="Path 8" d="M230.757,365.656c-.084.739-.314,1.025-.723,1.025a2.519,2.519,0,0,1-.86-.238,2.112,2.112,0,0,0-.822-.193,2.23,2.23,0,0,0-1.379.62,1.567,1.567,0,0,1-.941.322,1.536,1.536,0,0,1-1.317-.785,3.236,3.236,0,0,1-.376-1.656,5.594,5.594,0,0,1,.69-2.679c.229-.38.471-.56.688-.56.325,0,.568.381.568,1.059v.464c0,1.086.181,2.18,1.005,2.216h.059c1.234,0,1.257-1.429,1.68-2.893.18-.667.482-.907.76-.907a.906.906,0,0,1,.737.645,8.062,8.062,0,0,1,.3,2.4A8.309,8.309,0,0,1,230.757,365.656Z" transform="translate(-216.57 -354.621)" fill="#fff" fill-rule="evenodd"/>
      <path id="Path_9" data-name="Path 9" d="M237.479,365.374a3.261,3.261,0,0,1-1.89,1.3v-2.3a1.431,1.431,0,0,0,.755-.836,1.548,1.548,0,0,0,.121-.585.814.814,0,0,0-.448-.82.55.55,0,0,0-.193-.035.684.684,0,0,0-.235.044v-1.052a2.874,2.874,0,0,1,.307-.017,2.37,2.37,0,0,1,1.367.393,2.17,2.17,0,0,1,.893,1.857A3.573,3.573,0,0,1,237.479,365.374Zm-1.89,1.3a2.816,2.816,0,0,1-.647.077,2.242,2.242,0,0,1-2.273-2.394,3.412,3.412,0,0,1,.628-1.929,3.278,3.278,0,0,1,2.292-1.34v1.052a1.385,1.385,0,0,0-.756.836,1.531,1.531,0,0,0-.121.585.825.825,0,0,0,.434.821.612.612,0,0,0,.208.034.687.687,0,0,0,.236-.043Z" transform="translate(-217.841 -354.563)" fill="#fff" fill-rule="evenodd"/>
      <path id="Path_10" data-name="Path 10" d="M245.8,365a3.566,3.566,0,0,1-3.095,1.6,3.08,3.08,0,0,1-1.414-.309,2.644,2.644,0,0,1-1.462-2.382,3.1,3.1,0,0,1,.361-1.428,4.071,4.071,0,0,1,3.434-2.061,3.116,3.116,0,0,1,.991.156c.508.166.725.4.725.606,0,.238-.291.43-.738.43h-.168a1.824,1.824,0,0,0-2.056,1.845v.156a1.14,1.14,0,0,0,1.221,1.213,2.359,2.359,0,0,0,1.244-.38,1.207,1.207,0,0,1,.69-.237c.229,0,.409.095.409.343A1.059,1.059,0,0,1,245.8,365Z" transform="translate(-218.934 -354.462)" fill="#fff" fill-rule="evenodd"/>
      <path id="Path_11" data-name="Path 11" d="M253.955,366.745a4.766,4.766,0,0,1-.616.048c-.352,0-.69-.058-.761-.277a.221.221,0,0,1-.014-.093c0-.192.194-.382.508-.57a1.321,1.321,0,0,0,.689-1.049c0-.392-.265-.868-1.076-1.358-.651-.381-.906-.808-.906-1.214,0-.953,1.342-1.809,2.2-1.963a2,2,0,0,1,.35-.037c.375,0,.531.143.531.335a.626.626,0,0,1-.217.405c-.206.191-.749.487-.749.941,0,.333.291.75,1.233,1.272a1.754,1.754,0,0,1,1.1,1.49C256.226,365.638,255.151,366.554,253.955,366.745Z" transform="translate(-220.758 -354.434)" fill="#fff" fill-rule="evenodd"/>
      <path id="Path_12" data-name="Path 12" d="M262.393,365.374a3.257,3.257,0,0,1-1.891,1.3v-2.3a1.418,1.418,0,0,0,.754-.836,1.531,1.531,0,0,0,.121-.585.814.814,0,0,0-.445-.82.567.567,0,0,0-.195-.035.688.688,0,0,0-.236.044v-1.052a2.878,2.878,0,0,1,.308-.017,2.362,2.362,0,0,1,1.365.393,2.169,2.169,0,0,1,.9,1.857A3.575,3.575,0,0,1,262.393,365.374Zm-1.891,1.3a2.823,2.823,0,0,1-.648.077,2.336,2.336,0,0,1-1.3-.395,2.36,2.36,0,0,1-.968-2,3.4,3.4,0,0,1,.63-1.929,3.274,3.274,0,0,1,2.29-1.34v1.052a1.38,1.38,0,0,0-.753.836,1.474,1.474,0,0,0-.123.585.827.827,0,0,0,.434.821.612.612,0,0,0,.208.034.682.682,0,0,0,.235-.043Z" transform="translate(-221.644 -354.563)" fill="#fff" fill-rule="evenodd"/>
      <path id="Path_13" data-name="Path 13" d="M271.943,366.677a1.492,1.492,0,0,1-1.014-.511c-.772-.807-1.463-2.118-2.163-2.118h-.074c-1.208.142-1.147,1.524-1.365,2.153-.121.347-.4.715-.762.715a1.086,1.086,0,0,1-.808-.547,5.316,5.316,0,0,1-.872-3.061,4.672,4.672,0,0,1,.169-1.32c.17-.513.484-.7.809-.7a1.159,1.159,0,0,1,.957.619.872.872,0,0,0,.714.536,1.252,1.252,0,0,0,.736-.319,1.767,1.767,0,0,1,1.087-.383,1.49,1.49,0,0,1,1.377.844c.338.715.992,2.2,1.535,3.191a1.09,1.09,0,0,1,.145.476A.418.418,0,0,1,271.943,366.677Z" transform="translate(-222.758 -354.595)" fill="#fff" fill-rule="evenodd"/>
      <path id="Path_14" data-name="Path 14" d="M279.018,371.039a2.832,2.832,0,0,1-1.645.5,2.323,2.323,0,0,1-1.232-.3.6.6,0,0,1-.3-.486.426.426,0,0,1,.4-.441c.036,0,.072.011.107.011a2.4,2.4,0,0,0,.667.095,1.324,1.324,0,0,0,1-.358,3.16,3.16,0,0,0,.556-1.988,4.924,4.924,0,0,0-.1-.988c-.158-.679-.471-1.084-1.027-1.084a1.726,1.726,0,0,0-.6.119,3.206,3.206,0,0,1-1.125.225,1.6,1.6,0,0,1-1.694-1.738,3.087,3.087,0,0,1,.122-.844,4.906,4.906,0,0,1,3.988-3.323h.036c.363.013.495.143.495.322a.844.844,0,0,1-.472.631,2.744,2.744,0,0,0-1.691,2.274.835.835,0,0,0,.569.88,1.242,1.242,0,0,0,.35.048,1.326,1.326,0,0,0,1.184-.928c.208-.549.376-.989.836-1h.034c.485,0,.642.345.835,1.071a10.646,10.646,0,0,1,.411,2.846C280.721,368.919,279.827,370.467,279.018,371.039Z" transform="translate(-224.153 -354.466)" fill="#fff" fill-rule="evenodd"/>
      <path id="Path_15" data-name="Path 15" d="M297.781,366.23a.9.9,0,0,1-.736-.451,7.221,7.221,0,0,1-.943-3.658,4.7,4.7,0,0,1,.266-1.713,1.074,1.074,0,0,1,.992-.738.862.862,0,0,1,.846.953,1.227,1.227,0,0,1-.013.214,16.3,16.3,0,0,0-.108,1.915,15.913,15.913,0,0,0,.206,2.714,1.368,1.368,0,0,1,.023.2.507.507,0,0,1-.532.56Zm.725-8.334a1.212,1.212,0,0,1-1.063.69.824.824,0,0,1-.34-.072.715.715,0,0,1-.422-.713,1.548,1.548,0,0,1,.145-.619,1.127,1.127,0,0,1,.967-.715.7.7,0,0,1,.314.072.886.886,0,0,1,.508.846A1.276,1.276,0,0,1,298.506,357.9Z" transform="translate(-227.522 -353.859)" fill="#fff" fill-rule="evenodd"/>
      <path id="Path_16" data-name="Path 16" d="M305.852,365a3.564,3.564,0,0,1-3.1,1.6,3.073,3.073,0,0,1-1.413-.309,2.643,2.643,0,0,1-1.463-2.382,3.083,3.083,0,0,1,.363-1.428,4.068,4.068,0,0,1,3.43-2.061,3.119,3.119,0,0,1,.992.156c.507.166.724.4.724.606,0,.238-.29.43-.736.43h-.169a1.824,1.824,0,0,0-2.055,1.845v.156a1.139,1.139,0,0,0,1.22,1.213,2.363,2.363,0,0,0,1.246-.38,1.2,1.2,0,0,1,.688-.237c.229,0,.412.095.412.343A1.07,1.07,0,0,1,305.852,365Z" transform="translate(-228.099 -354.462)" fill="#fff" fill-rule="evenodd"/>
      <path id="Path_17" data-name="Path 17" d="M314.818,365.117c-.06.416-.253.595-.485.595-.277,0-.58-.263-.712-.715-.2-.714-.7-1.988-1.354-1.988a.41.41,0,0,0-.169.025c-.724.227-1.413,1.93-1.7,2.606-.158.358-.508.776-.907.776-.3,0-.628-.227-.919-.869a15.693,15.693,0,0,1-.351-8.905,1.154,1.154,0,0,1,.907-.833h.074c.327.047.459.379.459.772v.154c-.05.535-.073,1.132-.073,1.727a12.115,12.115,0,0,0,.325,3.108c.12.379.326.547.581.547a1.333,1.333,0,0,0,.832-.452,2.676,2.676,0,0,1,1.791-.894,1.353,1.353,0,0,1,1.015.441,4.773,4.773,0,0,1,.747,2.929A6.661,6.661,0,0,1,314.818,365.117Z" transform="translate(-229.297 -353.759)" fill="#fff" fill-rule="evenodd"/>
      <path id="Path_18" data-name="Path 18" d="M324.766,359.679a2.083,2.083,0,0,0-1.391,1.418,5.085,5.085,0,0,0-.157,1.3,10.766,10.766,0,0,0,.579,3.168,1.439,1.439,0,0,1,.075.427.637.637,0,0,1-.605.716,1.336,1.336,0,0,1-.98-.608,8.243,8.243,0,0,1-1.39-4.977,9.891,9.891,0,0,1,.714-3.939c.348-.692.735-.953,1.086-.953a.882.882,0,0,1,.785.9,1.538,1.538,0,0,0,1.257,1.62.487.487,0,0,1,.4.464A.514.514,0,0,1,324.766,359.679Z" transform="translate(-231.306 -353.823)" fill="#fff" fill-rule="evenodd"/>
      <path id="Path_19" data-name="Path 19" d="M333.656,365.117c-.059.416-.253.595-.483.595-.278,0-.581-.263-.713-.715-.208-.714-.7-1.988-1.352-1.988a.41.41,0,0,0-.171.025c-.724.227-1.414,1.93-1.7,2.606-.158.358-.507.776-.908.776-.3,0-.626-.227-.918-.869a13.365,13.365,0,0,1-.835-5.05,13.205,13.205,0,0,1,.484-3.856,1.149,1.149,0,0,1,.907-.833h.073c.326.047.459.379.459.772v.154c-.047.535-.072,1.132-.072,1.727a12.116,12.116,0,0,0,.325,3.108c.119.379.325.547.579.547a1.344,1.344,0,0,0,.836-.452,2.665,2.665,0,0,1,1.787-.894,1.35,1.35,0,0,1,1.015.441,4.752,4.752,0,0,1,.751,2.929A6.982,6.982,0,0,1,333.656,365.117Z" transform="translate(-232.172 -353.759)" fill="#fff" fill-rule="evenodd"/>
      <path id="Path_20" data-name="Path 20" d="M342.344,365.656c-.083.739-.314,1.025-.725,1.025a2.519,2.519,0,0,1-.857-.238,2.125,2.125,0,0,0-.821-.193,2.226,2.226,0,0,0-1.38.62,1.583,1.583,0,0,1-.943.322,1.537,1.537,0,0,1-1.316-.785,3.236,3.236,0,0,1-.376-1.656,5.6,5.6,0,0,1,.69-2.679c.229-.38.472-.56.69-.56.327,0,.568.381.568,1.059v.464c0,1.086.181,2.18,1,2.216h.06c1.234,0,1.257-1.429,1.68-2.893.181-.667.482-.907.76-.907a.912.912,0,0,1,.739.645,8.118,8.118,0,0,1,.3,2.4A8.716,8.716,0,0,1,342.344,365.656Z" transform="translate(-233.599 -354.621)" fill="#fff" fill-rule="evenodd"/>
      <path id="Path_21" data-name="Path 21" d="M350.27,365a3.565,3.565,0,0,1-3.095,1.6,3.061,3.061,0,0,1-1.413-.309A2.644,2.644,0,0,1,344.3,363.9a3.1,3.1,0,0,1,.363-1.428,4.066,4.066,0,0,1,3.433-2.061,3.12,3.12,0,0,1,.991.156c.506.166.724.4.724.606,0,.238-.291.43-.737.43H348.9a1.823,1.823,0,0,0-2.055,1.845v.156a1.14,1.14,0,0,0,1.22,1.213,2.36,2.36,0,0,0,1.246-.38A1.2,1.2,0,0,1,350,364.2c.23,0,.411.095.411.343A1.066,1.066,0,0,1,350.27,365Z" transform="translate(-234.877 -354.462)" fill="#fff" fill-rule="evenodd"/>
      <path id="Path_22" data-name="Path 22" d="M237.649,359.936a.312.312,0,0,1-.164.043c-.436,0-.946-.773-1.5-.773s-1.022.762-1.567.762a.665.665,0,0,1-.3-.085.21.21,0,0,1-.1-.2,3.371,3.371,0,0,1,1.491-1.982,1.338,1.338,0,0,1,.783-.28c.554,0,.945.481,1.241.921a2.194,2.194,0,0,1,.392,1.073A.562.562,0,0,1,237.649,359.936Z" transform="translate(-218.047 -354.005)" fill="#fff" fill-rule="evenodd"/>
      <path id="Path_23" data-name="Path 23" d="M262.607,359.936a.316.316,0,0,1-.166.043c-.432,0-.944-.773-1.5-.773s-1.022.762-1.565.762a.66.66,0,0,1-.305-.085.21.21,0,0,1-.1-.2,3.367,3.367,0,0,1,1.491-1.982,1.333,1.333,0,0,1,.782-.28c.556,0,.947.481,1.241.921a2.207,2.207,0,0,1,.39,1.073A.564.564,0,0,1,262.607,359.936Z" transform="translate(-221.856 -354.005)" fill="#fff" fill-rule="evenodd"/>
      <path id="Path_24" data-name="Path 24" d="M236.148,369.717c-.1.557-.425.888-.872.888a.092.092,0,0,1-.053-.009.973.973,0,0,1-.936-.954v-.064a1.135,1.135,0,0,1,1.065-1.125.9.9,0,0,1,.829.986A1.231,1.231,0,0,1,236.148,369.717Z" transform="translate(-218.088 -355.689)" fill="#fff" fill-rule="evenodd"/>
      <path id="Path_25" data-name="Path 25" d="M340.851,369.717c-.1.557-.424.888-.87.888a.086.086,0,0,1-.053-.009.974.974,0,0,1-.937-.954v-.064a1.137,1.137,0,0,1,1.067-1.125.9.9,0,0,1,.825.986A1.224,1.224,0,0,1,340.851,369.717Z" transform="translate(-234.067 -355.689)" fill="#fff" fill-rule="evenodd"/>
      <path id="Path_26" data-name="Path 26" d="M264.478,357.782a1.4,1.4,0,0,1-.684.322.4.4,0,0,1-.317-.173.281.281,0,0,1-.043-.172,2.237,2.237,0,0,1,.87-1.307,2.069,2.069,0,0,1,1.2-.547.562.562,0,0,1,.5.247.568.568,0,0,1,.108.319C266.11,357.1,264.881,357.5,264.478,357.782Z" transform="translate(-222.536 -353.774)" fill="#fff" fill-rule="evenodd"/>
      <path id="Path_27" data-name="Path 27" d="M292.954,356.563c-.014-.069-.027-.142-.041-.2-.194-.857-.58-1.3-1-1.3h-.072c-.508.059-.8.536-.823,1.382v.036a2.112,2.112,0,0,0-1.189.559v1a.96.96,0,0,0,.734.25c.091,0,.181-.008.276-.016-.025.126-.053.254-.087.383-.188.741-.525,1.033-.923,1.047v1.846c.447,0,.81.632.81,1.4s-.364,1.407-.81,1.408v1.28a1.6,1.6,0,0,1,1.081-.484.876.876,0,0,1,.181.013c.157.012.291.025.41.025a.883.883,0,0,0,.908-.631,15.3,15.3,0,0,0,.747-5.262c0-.535-.02-1.046-.053-1.507.377-.088.657-.244.657-.586v-.075C293.734,356.9,293.41,356.7,292.954,356.563Zm-3.128.475a.721.721,0,0,0-.191.48.559.559,0,0,0,.01.129.769.769,0,0,0,.181.393v-1Zm0,2.667H289.8a1.275,1.275,0,0,1-.5-.108,1.833,1.833,0,0,0-.665-.142,1.447,1.447,0,0,0-1.185.678,5.1,5.1,0,0,0-.772,2.74,4.083,4.083,0,0,0,.519,2.046,1.857,1.857,0,0,0,1.62,1.058,1.641,1.641,0,0,0,.93-.272l.08-.065v-1.28h0c-.446,0-.809-.633-.809-1.408s.364-1.4.809-1.4h0Z" transform="translate(-226.084 -353.645)" fill="#fff" fill-rule="evenodd"/>
      <path id="Path_28" data-name="Path 28" d="M343.855,361.6a.627.627,0,0,1-.624-.045c-.126-.108-.158-.3.012-.53.356-.513-.295-.755.1-1.313.012-.013.028-.034.045-.053a.82.82,0,0,1,1.135-.044c.026.021.053.055.08.08a.967.967,0,0,1-.058,1.394A1.989,1.989,0,0,1,343.855,361.6Z" transform="translate(-234.698 -354.309)" fill="#fff" fill-rule="evenodd"/>
      <path id="Path_29" data-name="Path 29" d="M298.321,355.264a1.4,1.4,0,0,1-.686.32.39.39,0,0,1-.314-.17.256.256,0,0,1-.047-.171,2.256,2.256,0,0,1,.871-1.308,2.081,2.081,0,0,1,1.2-.545.558.558,0,0,1,.5.246.564.564,0,0,1,.11.322C299.953,354.578,298.722,354.986,298.321,355.264Z" transform="translate(-227.701 -353.39)" fill="#fff" fill-rule="evenodd"/>
    </g>
  </g>
</svg>
