<svg width="60" height="60" viewBox="0 0 60 60" fill="none" xmlns="http://www.w3.org/2000/svg">
<path d="M24.096 16C24.096 16.5523 23.6483 17 23.096 17H18.904C18.3517 17 17.904 16.5523 17.904 16V11.8866C17.904 11.3343 17.4563 10.8866 16.904 10.8866H16.0607C15.2257 10.8866 14.7584 9.92375 15.2751 9.26781L20.2144 2.99728C20.6148 2.489 21.3852 2.48899 21.7856 2.99728L26.7249 9.26781C27.2416 9.92375 26.7743 10.8866 25.9393 10.8866H25.096C24.5437 10.8866 24.096 11.3343 24.096 11.8866V16Z" fill="#5994FF"/>
<path d="M33.904 5C33.904 4.44772 34.3517 4 34.904 4L39.096 4C39.6483 4 40.096 4.44771 40.096 5L40.096 8.63637C40.096 9.18866 40.5437 9.63637 41.096 9.63637L42.0039 9.63637C42.8272 9.63637 43.2978 10.5757 42.8048 11.2351L37.8009 17.9286C37.401 18.4636 36.599 18.4636 36.1991 17.9286L31.1952 11.2351C30.7022 10.5757 31.1728 9.63637 31.9961 9.63637L32.904 9.63637C33.4563 9.63637 33.904 9.18866 33.904 8.63637L33.904 5Z" fill="#5994FF"/>
<path d="M10.7006 22.5L9.26063 23.9391C8.73 24.4706 8.4375 25.1766 8.4375 25.9284V28.8984L12.5559 25.3687C12.9169 25.0594 13.125 24.6084 13.125 24.1312C13.125 23.2312 12.3938 22.5 11.4938 22.5H10.7006Z" fill="#5994FF"/>
<path d="M3 51C3 50.4477 3.44772 50 4 50H13C13.5523 50 14 50.4477 14 51V56C14 56.5523 13.5523 57 13 57H4C3.44771 57 3 56.5523 3 56V51Z" fill="#5994FF"/>
<path d="M14.0625 32.8125C13.0284 32.8125 12.1875 33.6534 12.1875 34.6875V41.25H10.3125V39.7631L7.935 37.3866C7.05 36.5016 6.5625 35.3241 6.5625 34.0716V25.9284C6.5625 24.6759 7.05 23.4984 7.935 22.6134L11.7094 18.84C12.0131 18.5353 12.1875 18.1153 12.1875 17.6859V17.5687C12.1875 16.6687 11.4563 15.9375 10.5563 15.9375H10.4391C10.0041 15.9375 9.59437 16.1072 9.28594 16.4156L5.28375 20.4178C3.69 22.0116 2.8125 24.1294 2.8125 26.3841V45.7359C2.8125 46.9256 3.13594 48.0938 3.74812 49.1128L5.21812 51.5625H12.1875V49.2188L14.8125 47.25C15.5166 46.7213 15.9375 45.8803 15.9375 45V34.6875C15.9375 33.6534 15.0966 32.8125 14.0625 32.8125Z" fill="#5994FF"/>
<path d="M51.5625 28.8994V25.9294C51.5625 25.1775 51.27 24.4706 50.7394 23.94L49.2994 22.5H48.5063C47.6063 22.5 46.875 23.2313 46.875 24.1313C46.875 24.6084 47.0831 25.0594 47.4441 25.3697L51.5625 28.8994Z" fill="#5994FF"/>
<path d="M30 22.5C23.28 22.5 17.8125 27.9675 17.8125 34.6875C17.8125 41.4075 23.28 46.875 30 46.875C36.72 46.875 42.1875 41.4075 42.1875 34.6875C42.1875 27.9675 36.72 22.5 30 22.5ZM21.5625 35.625H19.6875V33.75H21.5625V35.625ZM29.0625 33.75H30.9375C33.0056 33.75 34.6875 35.4319 34.6875 37.5C34.6875 39.5681 33.0056 41.25 30.9375 41.25V43.125H29.0625V41.25C26.9944 41.25 25.3125 39.5681 25.3125 37.5H27.1875C27.1875 38.5341 28.0284 39.375 29.0625 39.375H30.9375C31.9716 39.375 32.8125 38.5341 32.8125 37.5C32.8125 36.4659 31.9716 35.625 30.9375 35.625H29.0625C26.9944 35.625 25.3125 33.9431 25.3125 31.875C25.3125 29.8069 26.9944 28.125 29.0625 28.125V26.25H30.9375V28.125C33.0056 28.125 34.6875 29.8069 34.6875 31.875H32.8125C32.8125 30.8409 31.9716 30 30.9375 30H29.0625C28.0284 30 27.1875 30.8409 27.1875 31.875C27.1875 32.9091 28.0284 33.75 29.0625 33.75ZM40.3125 35.625H38.4375V33.75H40.3125V35.625Z" fill="#5994FF"/>
<path d="M46 51C46 50.4477 46.4477 50 47 50H56C56.5523 50 57 50.4477 57 51V56C57 56.5523 56.5523 57 56 57H47C46.4477 57 46 56.5523 46 56V51Z" fill="#5994FF"/>
<path d="M54.7162 20.4169L50.7141 16.4147C50.4066 16.1072 49.9969 15.9375 49.5609 15.9375H49.4438C48.5438 15.9375 47.8125 16.6687 47.8125 17.5687V17.6859C47.8125 18.1153 47.9869 18.5353 48.2897 18.8391L52.0641 22.6125C52.95 23.4984 53.4375 24.6759 53.4375 25.9284V34.0716C53.4375 35.3241 52.95 36.5016 52.065 37.3866L49.6875 39.7631V41.25H47.8125V34.6875C47.8125 33.6534 46.9716 32.8125 45.9375 32.8125C44.9034 32.8125 44.0625 33.6534 44.0625 34.6875V45C44.0625 45.8803 44.4834 46.7213 45.1875 47.25L47.8125 49.2188V51.5625H54.7819L56.2528 49.1119C56.8641 48.0928 57.1875 46.9247 57.1875 45.735V26.3841C57.1875 24.1294 56.31 22.0116 54.7162 20.4169Z" fill="#5994FF"/>
</svg>
