<svg width="1em" height="1em" viewBox="0 0 22 22" fill="none" xmlns="http://www.w3.org/2000/svg"><path d="M1.83301 20.1667C1.83301 18.2217 2.60562 16.3565 3.98089 14.9812C5.35616 13.6059 7.22142 12.8333 9.16634 12.8333C11.1113 12.8333 12.9765 13.6059 14.3518 14.9812C15.7271 16.3565 16.4997 18.2217 16.4997 20.1667H14.6663C14.6663 18.708 14.0869 17.309 13.0554 16.2776C12.024 15.2461 10.625 14.6667 9.16634 14.6667C7.70765 14.6667 6.3087 15.2461 5.27725 16.2776C4.2458 17.309 3.66634 18.708 3.66634 20.1667H1.83301ZM9.16634 11.9167C6.12759 11.9167 3.66634 9.45541 3.66634 6.41666C3.66634 3.37791 6.12759 0.916656 9.16634 0.916656C12.2051 0.916656 14.6663 3.37791 14.6663 6.41666C14.6663 9.45541 12.2051 11.9167 9.16634 11.9167ZM9.16634 10.0833C11.1922 10.0833 12.833 8.44249 12.833 6.41666C12.833 4.39082 11.1922 2.74999 9.16634 2.74999C7.14051 2.74999 5.49967 4.39082 5.49967 6.41666C5.49967 8.44249 7.14051 10.0833 9.16634 10.0833ZM16.76 13.4777C18.0482 14.0579 19.1415 14.9978 19.9084 16.1844C20.6753 17.371 21.0832 18.7538 21.083 20.1667H19.2497C19.2499 19.107 18.944 18.0698 18.3688 17.1798C17.7937 16.2898 16.9737 15.5848 16.0074 15.1497L16.7591 13.4777H16.76ZM16.1293 3.12857C17.0529 3.50926 17.8426 4.15573 18.3981 4.98595C18.9536 5.81617 19.25 6.79271 19.2497 7.79166C19.2501 9.04963 18.7801 10.2623 17.932 11.1914C17.0839 12.1205 15.9191 12.699 14.6663 12.8132V10.9679C15.3455 10.8706 15.9757 10.5582 16.4642 10.0764C16.9527 9.59465 17.274 8.96895 17.3807 8.29118C17.4875 7.61341 17.3742 6.91926 17.0574 6.31065C16.7406 5.70203 16.237 5.21101 15.6206 4.90966L16.1293 3.12857Z" fill="currentColor"></path></svg>